# Blender v2.66 (sub 1) OBJ File: 'test_map.blend'
# www.blender.org
mtllib test_map.mtl
o Plane
v 289.808014 -13.435699 18.770020
v -19.867371 -1.051534 18.770020
v 289.808014 -13.435698 -290.770050
v -19.717354 -16.450808 -290.770050
v 135.045349 -14.943252 18.770020
v 135.045349 -14.943252 -290.770050
v 289.808014 -13.435699 -136.000015
v -19.717354 -16.450808 -136.000015
v 135.045349 -14.943252 -136.000015
v 57.513996 -0.297758 18.770020
v 57.663994 -15.697030 -290.770050
v 289.808014 -13.435699 -213.385025
v -19.867371 -1.051534 -58.615002
v 212.426697 -14.189475 18.770020
v 212.426697 -14.189475 -290.770050
v 289.808014 -13.435699 -58.615002
v -19.717354 -16.450808 -213.385025
v 134.820312 32.146591 -213.385040
v 135.045349 -14.943252 -58.615002
v 57.663994 -15.697030 -136.000015
v 212.201675 33.654140 -136.000015
v 212.201675 33.654144 -213.385040
v 57.663994 -15.697030 -213.385025
v 57.513996 -0.297756 -58.615002
v 212.426697 -14.189475 -58.615002
v 18.823339 -0.674644 18.770020
v 289.808014 -13.435698 -252.077560
v -19.867371 -1.051534 -19.922491
v 251.117386 -13.812586 18.770020
v 251.117386 -13.812586 -290.770050
v 289.808014 -13.435699 -19.922491
v 134.820312 32.146591 -252.077560
v 135.045349 -14.943252 -19.922491
v 18.973339 -16.073919 -136.000015
v 173.735992 -13.297457 -136.000015
v 96.354668 -15.320142 18.770020
v 96.354668 -15.320141 -290.770050
v 289.808014 -13.435699 -174.692520
v -19.717354 -16.450808 -97.307510
v 173.735992 -14.566364 18.770020
v 173.735992 -14.566364 -290.770050
v 289.808044 -11.036125 -97.307503
v 135.045334 -14.051232 -174.692520
v 135.045349 -14.943252 -97.307510
v 96.354668 -15.320142 -136.000015
v 250.892365 34.407921 -136.000015
v 212.426697 -12.543679 -252.077560
v 212.201675 33.654144 -174.692535
v 173.511002 32.900364 -213.385040
v 251.117386 -11.789901 -213.385025
v 96.354660 -14.805011 -213.385025
v 57.663994 -15.697030 -97.307510
v 57.513996 -0.297758 -19.922491
v 18.823339 -0.674646 -58.615002
v 96.354668 -15.320142 -58.615002
v 212.426697 -12.543679 -97.307503
v 212.426697 -14.189475 -19.922491
v 173.735992 -14.566364 -58.615002
v 251.117386 -11.789901 -58.614990
v 251.117386 -11.789901 -252.077560
v 96.354660 -14.805011 -252.077560
v 173.623489 9.801454 -232.731308
v 250.892365 34.407921 -97.307495
v 173.735992 -13.297457 -252.077560
v 173.735992 -13.297457 -174.692520
v 251.117386 -11.789901 -174.692520
v 18.973339 -16.073919 -174.692520
v 96.354668 -15.320142 -174.692520
v 18.973339 -16.073919 -97.307510
v 18.823339 -0.674646 -19.922491
v 96.354668 -15.320142 -19.922491
v 173.735992 -13.297457 -97.307503
v 173.735992 -14.566364 -19.922491
v 251.117386 -13.812586 -19.922491
v 115.700005 -15.131697 18.770020
v -19.717354 -16.450808 -116.653763
v 289.808014 -13.435699 -116.653763
v 57.663994 -15.697030 -116.653763
v 76.859322 -0.109312 18.770020
v -19.867371 -1.051536 -77.961250
v 57.513996 -0.297756 -77.961250
v 96.354668 -15.320142 -116.653763
v 77.009338 -15.508586 -97.307510
v 115.700005 -15.131697 -97.307510
v 18.973339 -16.073917 -116.653763
v 18.823339 -0.674646 -77.961250
v -0.372008 -16.262363 -97.307510
v 38.318668 -15.885474 -97.307510
v 115.700005 -15.131697 -116.653763
v 270.237701 34.784813 -116.653755
v 38.318668 -15.885474 -116.653763
v 77.009338 -15.508586 -116.653763
v 76.859322 -0.109312 -77.961250
v 115.700005 -15.131697 -77.961250
v 270.462708 -11.413013 -77.961243
v -0.372008 -16.262363 -116.653763
v -0.522025 -0.863087 -77.961250
v 38.168667 -0.486202 -77.961250
v 76.859322 -0.109312 -0.576240
v 115.700005 -15.131697 -0.576240
v 231.659531 10.932121 -213.385025
v 251.117386 -11.789901 -232.731308
v 231.659531 10.932119 -97.307495
v 231.659531 10.932121 -174.692520
v 173.623489 9.801454 -194.038773
v 280.135345 -11.224569 -87.634369
v 251.004883 11.309010 -77.961243
v 154.390671 -13.674345 -174.692520
v 134.820312 32.146591 -232.731308
v 154.278168 9.424565 -252.077560
v 260.790039 -11.601457 -68.288116
v 212.314178 10.555231 -232.731308
v 260.677551 11.497453 -87.634369
v 173.735992 -13.297457 -155.346268
v 251.004883 11.309010 -155.346268
v 260.565033 34.596367 -126.326897
v 212.201675 33.654144 -194.038788
v 212.314178 10.555231 -116.653770
v 96.354660 -14.805011 -232.731308
v 115.587486 8.670790 -213.385025
v 251.117386 -11.789901 -194.038773
v 134.932831 9.047678 -194.038773
v 173.735992 -13.297457 -116.653770
v 115.587486 8.670788 -252.077560
v 231.547028 34.031033 -136.000015
v 280.022858 11.874343 -106.980629
v 192.856354 33.277256 -213.385040
v 192.968842 10.178341 -136.000015
v 231.772034 -12.166789 -252.077560
v 193.081345 -12.920569 -252.077560
v 250.892365 34.407921 -116.653755
v 260.565033 34.596367 -106.980621
v 212.201675 33.654144 -155.346268
v 193.081345 -12.920569 -97.307503
v 192.968842 10.178344 -174.692520
v 154.165649 32.523479 -213.385040
v 192.912582 21.727798 -194.038773
v 193.025085 -1.371115 -116.653770
v 154.278168 9.424565 -194.038773
v 231.603271 22.481575 -155.346268
v 192.968842 10.178341 -155.346268
v 115.587486 8.670790 -232.731308
v 192.968842 10.178342 -232.731308
v 270.350220 11.685897 -97.307495
v 231.715790 -0.617334 -232.731308
v 231.659531 10.932121 -194.038773
v 154.221909 20.974020 -232.731308
v 231.603271 22.481575 -116.653770
vt 0.000000 0.000000
vt 0.000000 1.000000
vt 0.500000 1.000000
vt 1.000000 1.000000
vt 1.000000 0.000000
vt 0.000000 0.500000
vt 0.500000 0.500000
vt 1.000000 0.500000
vt 0.500000 0.000000
vn -0.014594 0.998772 -0.047347
vn -0.014600 0.999185 -0.037634
vn -0.291829 0.916396 0.273962
vn -0.009741 0.999952 0.000000
vn -0.009741 0.999953 -0.000000
vn -0.564155 0.613871 0.552170
vn 0.338336 0.874774 0.346841
vn 0.609320 0.495616 -0.618946
vn -0.009740 0.999952 0.000000
vn -0.012507 0.642000 0.766603
vn -0.042499 0.999097 0.000000
vn 0.257972 0.925892 -0.275998
vn -0.773547 0.633739 0.000000
vn -0.023049 0.999734 0.000000
vn 0.338336 0.874774 -0.346841
vn 0.042418 0.997184 0.061842
vn -0.773548 0.633738 0.000000
vn -0.012507 0.641999 -0.766603
vn -0.230679 0.724374 0.649668
vn 0.601182 0.514817 0.611182
vn 0.480568 0.753598 -0.448490
vn -0.021262 0.999708 0.011524
vn -0.462783 0.754442 -0.465456
vn 0.925589 0.375651 -0.046594
vn -0.019479 0.999810 0.000000
vn 0.042499 0.999097 0.000000
vn 0.016390 0.999524 -0.026126
vn 0.360729 0.932671 0.000000
vn 0.759557 0.650441 0.000000
vn -0.615524 0.504275 0.605671
vn 0.016390 0.999524 0.026126
vn 0.545587 0.625503 -0.557746
vn -0.019478 0.999810 0.000000
vn -0.009740 0.999864 -0.013312
vn 0.442067 0.761247 -0.474426
vn -0.014600 0.999185 0.037634
vn -0.026127 0.999524 0.016390
vn 0.926596 0.376059 -0.000000
vn 0.042499 0.999096 0.000000
vn -0.660753 0.718981 0.215572
vn -0.035845 0.999016 0.026112
vn -0.023047 0.999646 0.013309
vn -0.660753 0.718982 0.215572
vn -0.291828 0.916396 0.273962
vn -0.230679 0.724374 0.649669
vn -0.012507 0.641999 0.766603
vn -0.012508 0.641999 0.766603
vn 0.203349 0.729842 -0.652672
vn 0.545586 0.625504 -0.557746
vn 0.641430 0.735386 -0.218575
vn -0.012508 0.642000 -0.766603
vn -0.012508 0.641999 -0.766603
vn 0.601181 0.514818 0.611182
vn 0.545587 0.625504 -0.557746
vn -0.440418 0.790832 0.424991
vn 0.257972 0.925892 -0.275997
vn -0.032636 0.999381 0.013166
vn -0.432081 0.799908 0.416478
g Plane_Plane_None
usemtl None
s off
f 15/1/1 47/2/1 129/3/1 60/4/1 30/5/1
f 64/1/2 130/6/2 47/2/2 15/4/2 41/5/2
f 137/7/3 117/3/3 22/4/3 127/8/3
f 67/1/4 23/4/4 17/5/4
f 68/1/4 23/2/4 67/4/4 20/5/4
f 24/1/5 98/4/5 54/5/5
f 34/1/5 20/4/5 67/5/5
f 70/1/4 53/2/4 24/4/4 54/5/4
f 71/1/5 33/2/5 19/4/5 55/5/5
f 138/7/6 118/3/6 21/4/6 128/8/6
f 73/1/4 57/2/4 25/4/4 58/5/4
f 55/1/7 94/4/7 93/5/7
f 90/1/8 7/4/8 46/5/8 116/9/8
f 91/1/5 20/4/5 34/5/5
f 54/1/9 86/4/9 97/5/9
f 8/1/5 34/4/5 67/5/5
f 139/7/10 136/3/10 18/4/10 122/8/10
f 71/1/5 100/4/5 33/5/5
f 72/1/11 123/6/11 35/2/11 9/4/11 44/5/11
f 140/7/12 133/3/12 21/4/12 125/8/12
f 141/7/13 135/3/13 65/4/13 114/8/13
f 10/1/4 79/4/4 99/5/4
f 8/1/5 96/4/5 34/5/5
f 61/1/14 11/4/14 23/5/14
f 11/1/5 4/2/5 17/4/5 23/5/5
f 53/1/15 99/4/15 71/5/15
f 24/1/5 81/4/5 98/5/5
f 10/1/5 99/4/5 53/5/5
f 10/1/4 53/2/4 70/4/4 26/5/4
f 73/1/5 33/2/5 5/4/5 40/5/5
f 89/1/5 9/4/5 45/5/5
f 16/1/16 95/4/16 111/8/16 59/5/16
f 14/1/4 57/2/4 73/4/4 40/5/4
f 142/7/17 120/3/17 18/4/17 109/8/17
f 143/7/18 130/3/18 64/4/18 62/8/18
f 105/9/19 137/7/19 127/8/19 49/5/19
f 100/1/5 5/4/5 33/5/5
f 144/7/20 113/3/20 95/4/20 106/8/20
f 7/1/21 38/2/21 66/4/21 115/8/21 46/5/21
f 68/1/22 45/2/22 9/4/22 43/5/22
f 23/1/14 51/4/14 119/8/14 61/5/14
f 37/1/23 61/2/23 124/3/23 32/4/23 6/5/23
f 42/1/24 77/4/24 90/5/24 126/9/24
f 20/1/4 92/4/4 45/5/4
f 16/1/16 42/4/16 106/8/16 95/5/16
f 90/1/25 116/7/25 132/9/25
f 66/1/26 38/2/26 12/4/26 50/5/26 121/9/26
f 145/7/12 102/3/12 60/4/12 129/8/12
f 73/1/5 58/2/5 19/4/5 33/5/5
f 93/1/7 24/4/7 55/5/7
f 92/1/5 82/4/5 45/5/5
f 45/1/4 68/4/4 20/5/4
f 60/1/27 27/2/27 3/4/27 30/5/27
f 71/1/28 55/2/28 24/4/28 53/5/28
f 146/7/29 101/3/29 22/4/29 117/8/29
f 103/8/30 107/3/30 63/4/30
f 74/1/31 31/2/31 16/4/31 59/5/31
f 97/1/5 13/4/5 54/5/5
f 75/1/5 5/4/5 100/5/5
f 147/7/32 62/3/32 64/4/32 110/8/32
f 108/8/33 114/3/33 65/4/33
f 94/1/5 19/4/5 44/5/5
f 84/1/5 94/4/5 44/5/5
f 74/1/5 57/2/5 14/4/5 29/5/5
f 120/9/30 122/8/30 18/5/30
f 85/1/5 91/4/5 34/5/5
f 29/1/5 1/2/5 31/4/5 74/5/5
f 59/1/20 111/7/20 107/9/20
f 2/1/4 26/2/4 70/4/4 28/5/4
f 37/1/34 11/4/34 61/5/34
f 8/1/5 67/4/5 17/5/5
f 19/1/4 94/4/4 55/5/4
f 6/1/35 32/2/35 110/3/35 64/4/35 41/5/35
f 78/1/5 92/4/5 20/5/5
f 91/1/5 78/4/5 20/5/5
f 25/1/36 56/2/36 134/3/36 72/4/36 58/5/36
f 84/1/5 44/4/5 89/5/5
f 70/1/4 54/2/4 13/4/4 28/5/4
f 81/1/5 24/4/5 93/5/5
f 86/1/5 54/4/5 98/5/5
f 99/1/15 100/4/15 71/5/15
f 80/1/5 13/4/5 97/5/5
f 9/1/5 89/4/5 44/5/5
f 19/1/37 58/2/37 72/4/37 44/5/37
f 82/1/4 89/4/4 45/5/4
f 90/1/38 77/4/38 7/5/38
f 12/1/39 27/2/39 60/4/39 102/8/39 50/5/39
f 148/7/40 103/3/40 63/4/40 131/8/40
f 74/1/41 59/2/41 25/4/41 57/5/41
f 76/1/5 96/4/5 8/5/5
f 68/1/42 51/4/42 23/5/42
f 96/1/5 85/4/5 34/5/5
f 65/1/6 135/6/6 137/7/6 105/9/6
f 135/6/40 48/2/40 117/3/40 137/7/40
f 123/9/43 138/7/43 128/8/43 35/5/43
f 72/1/44 134/6/44 138/7/44 123/9/44
f 134/6/45 56/2/45 118/3/45 138/7/45
f 108/9/46 139/7/46 122/8/46 43/5/46
f 65/1/47 105/6/47 139/7/47 108/9/47
f 105/6/10 49/2/10 136/3/10 139/7/10
f 115/9/48 140/7/48 125/8/48 46/5/48
f 66/1/49 104/6/49 140/7/49 115/9/49
f 104/6/50 48/2/50 133/3/50 140/7/50
f 128/9/13 141/7/13 114/8/13 35/5/13
f 21/1/17 133/6/17 141/7/17 128/9/17
f 133/6/17 48/2/17 135/3/17 141/7/17
f 124/9/17 142/7/17 109/8/17 32/5/17
f 61/1/17 119/6/17 142/7/17 124/9/17
f 119/6/17 51/2/17 120/3/17 142/7/17
f 127/9/51 143/7/51 62/8/51 49/5/51
f 22/1/51 112/6/51 143/7/51 127/9/51
f 112/6/52 47/2/52 130/3/52 143/7/52
f 126/9/20 144/7/20 106/8/20 42/5/20
f 90/1/20 132/6/20 144/7/20 126/9/20
f 132/6/53 63/2/53 113/3/53 144/7/53
f 132/9/25 131/8/25 63/5/25
f 132/9/25 116/7/25 131/8/25
f 116/7/25 46/4/25 131/8/25
f 112/9/48 145/7/48 129/8/48 47/5/48
f 22/1/54 101/6/54 145/7/54 112/9/54
f 101/6/50 50/2/50 102/3/50 145/7/50
f 104/9/29 146/7/29 117/8/29 48/5/29
f 66/1/29 121/6/29 146/7/29 104/9/29
f 121/6/29 50/2/29 101/3/29 146/7/29
f 25/1/55 59/2/55 107/3/55 103/8/55 56/5/55
f 109/9/50 147/7/50 110/8/50 32/5/50
f 18/1/56 136/6/56 147/7/56 109/9/56
f 136/6/48 49/2/48 62/3/48 147/7/48
f 9/1/57 35/2/57 114/3/57 108/8/57 43/5/57
f 51/1/58 68/2/58 43/4/58 122/8/58 120/9/58
f 107/9/53 113/8/53 63/5/53
f 107/9/20 111/7/20 113/8/20
f 111/7/20 95/4/20 113/8/20
f 125/9/3 148/7/3 131/8/3 46/5/3
f 21/1/45 118/6/45 148/7/45 125/9/45
f 118/6/6 56/2/6 103/3/6 148/7/6
f 75 36
f 76 39
f 78 52
f 79 36
f 80 39
f 81 52
f 85 69
f 86 69
f 91 88
f 92 83
f 93 83
f 96 87
f 97 87
f 98 88
